<svg width="500" height="127" viewBox="0 0 500 127" fill="none" xmlns="http://www.w3.org/2000/svg">
<circle cx="63.3192" cy="63.3192" r="63.3192" fill="#86C6E2"/>
<path d="M27.8068 19.0962C35.3004 20.1571 53.0126 22.2789 63.9124 22.2789C74.8122 22.2789 91.9567 20.7155 99.1665 19.9337L88.2667 107.877H85.8824L27.8068 19.0962Z" fill="white"/>
<path d="M64.9943 75.7149L44.8929 107.877H41.2077L27.8068 19.0962L64.9943 75.7149Z" fill="#0088CC"/>
<path d="M131.664 109.053H146.444V93.7451H182.619V109.022H197.399V81.7593H190.568V30.1519H147.065L145.078 57.0734C143.929 73.158 140.482 78.7783 136.042 81.7593H131.664V109.053ZM153.679 81.7593C156.629 76.76 159.02 69.2145 159.858 57.0734L160.852 42.6345H175.788V81.7593H153.679Z" fill="#006FBE"/>
<path d="M226.743 94.6456C239.257 94.6456 247.485 88.5906 249.224 79.2131L235.282 78.8094C234.102 81.9766 230.997 83.6845 227.022 83.6845C221.185 83.6845 217.583 79.803 217.583 73.9654V73.5617H249.379V69.7734C249.379 54.0614 239.816 45.4291 226.277 45.4291C211.869 45.4291 202.616 55.3035 202.616 70.084C202.616 85.3612 211.745 94.6456 226.743 94.6456ZM217.583 64.7431C217.8 59.9922 221.557 56.3903 226.588 56.3903C231.587 56.3903 235.189 59.868 235.251 64.7431H217.583Z" fill="#006FBE"/>
<path d="M271.511 46.0502H257.135V93.7451H271.511V75.549H285.64V93.7451H299.923V46.0502H285.64V63.9668H271.511V46.0502Z" fill="#006FBE"/>
<path d="M305.008 57.6634H320.068V93.7451H334.476V57.6634H349.722V46.0502H305.008V57.6634Z" fill="#006FBE"/>
<path d="M370.402 94.5525C377.047 94.5525 381.643 91.9752 384.251 87.1001H384.624V93.7451H398.907V61.3275C398.907 51.2358 389.934 45.4291 377.793 45.4291C364.968 45.4291 357.702 51.8878 356.491 60.5822L370.495 61.079C371.148 58.036 373.663 56.1729 377.668 56.1729C381.394 56.1729 383.754 57.9739 383.754 61.1722V61.3275C383.754 64.2463 380.587 64.8673 372.452 65.5815C362.795 66.3888 354.721 69.9597 354.721 80.5172C354.721 89.9568 361.273 94.5525 370.402 94.5525ZM375.091 84.616C371.582 84.616 369.098 82.9392 369.098 79.772C369.098 76.6979 371.52 74.8348 375.836 74.1827C378.662 73.7791 382.14 73.158 383.848 72.2576V76.7911C383.848 81.4488 379.935 84.616 375.091 84.616Z" fill="#006FBE"/>
<path d="M433.469 62.1658H404.032V73.8722H433.469V62.1658Z" fill="#006FBE"/>
<path d="M437.603 30.1519V93.7451H451.565V54.4651H452.092L464.02 93.3414H473.583L485.51 54.6825H486.038V93.7451H500V30.1519H481.971L469.174 69.525H468.429L455.632 30.1519H437.603Z" fill="#006FBE"/>
</svg>
