<svg width="45" height="57" viewBox="0 0 45 57" fill="none" xmlns="http://www.w3.org/2000/svg">
<path d="M21.0892 56.2563C21.4036 56.7209 21.9329 57 22.4996 57C23.0663 57 23.5956 56.721 23.91 56.2563C27.9214 50.3284 33.83 43.0074 37.9473 35.5617C41.2395 29.6083 42.84 24.5307 42.84 20.0391C42.84 8.98952 33.7153 0 22.4996 0C11.2839 0 2.15918 8.98952 2.15918 20.0391C2.15918 24.5307 3.75963 29.6083 7.05184 35.5617C11.1661 43.0017 17.086 50.3407 21.0892 56.2563ZM22.4996 3.33984C31.846 3.33984 39.4499 10.8311 39.4499 20.0391C39.4499 23.9583 37.9846 28.5131 34.9704 33.9639C31.4213 40.3818 26.3568 46.8922 22.4996 52.3653C18.6429 46.893 13.5781 40.3822 10.0288 33.9639C7.01455 28.5131 5.54925 23.9583 5.54925 20.0391C5.54925 10.8311 13.1532 3.33984 22.4996 3.33984V3.33984Z" fill="black"/>
<path d="M22.4993 30.0586C28.1072 30.0586 32.6695 25.5638 32.6695 20.0391C32.6695 14.5143 28.1072 10.0195 22.4993 10.0195C16.8915 10.0195 12.3291 14.5143 12.3291 20.0391C12.3291 25.5638 16.8915 30.0586 22.4993 30.0586ZM22.4993 13.3594C26.2379 13.3594 29.2794 16.3559 29.2794 20.0391C29.2794 23.7222 26.2379 26.7188 22.4993 26.7188C18.7607 26.7188 15.7192 23.7222 15.7192 20.0391C15.7192 16.3559 18.7607 13.3594 22.4993 13.3594Z" fill="black"/>
</svg>
