<svg width="18" height="23" viewBox="0 0 18 23" fill="none" xmlns="http://www.w3.org/2000/svg">
<g clip-path="url(#clip0_28_443)">
<path d="M8.43578 22.6999C8.56153 22.8874 8.77325 23 8.99993 23C9.22661 23 9.43833 22.8874 9.56408 22.6999C11.1687 20.308 13.5321 17.3539 15.179 14.3494C16.4959 11.9472 17.1361 9.89836 17.1361 8.08594C17.1361 3.62735 13.4862 0 8.99993 0C4.51365 0 0.86377 3.62735 0.86377 8.08594C0.86377 9.89836 1.50395 11.9472 2.82083 14.3494C4.46655 17.3516 6.83449 20.3129 8.43578 22.6999ZM8.99993 1.34766C12.7385 1.34766 15.7801 4.37045 15.7801 8.08594C15.7801 9.66737 15.1939 11.5053 13.9883 13.7047C12.5686 16.2944 10.5428 18.9214 8.99993 21.1299C7.45727 18.9217 5.43132 16.2946 4.01161 13.7047C2.80592 11.5053 2.2198 9.66737 2.2198 8.08594C2.2198 4.37045 5.26136 1.34766 8.99993 1.34766Z" fill="black"/>
<path d="M8.99997 12.1289C11.2431 12.1289 13.068 10.3152 13.068 8.08594C13.068 5.85664 11.2431 4.04297 8.99997 4.04297C6.75683 4.04297 4.93188 5.85664 4.93188 8.08594C4.93188 10.3152 6.75683 12.1289 8.99997 12.1289ZM8.99997 5.39062C10.4954 5.39062 11.712 6.59974 11.712 8.08594C11.712 9.57213 10.4954 10.7812 8.99997 10.7812C7.50454 10.7812 6.28791 9.57213 6.28791 8.08594C6.28791 6.59974 7.50454 5.39062 8.99997 5.39062Z" fill="black"/>
</g>
<defs>
<clipPath id="clip0_28_443">
<rect width="18" height="23" fill="white"/>
</clipPath>
</defs>
</svg>
