<svg width="17" height="23" viewBox="0 0 17 23" fill="none" xmlns="http://www.w3.org/2000/svg">
<path d="M7.57201 22.6999C7.69776 22.8874 7.90948 23 8.13616 23C8.36284 23 8.57456 22.8874 8.70031 22.6999C10.3049 20.308 12.6683 17.3539 14.3153 14.3494C15.6321 11.9472 16.2723 9.89836 16.2723 8.08594C16.2723 3.62735 12.6224 0 8.13616 0C3.64988 0 0 3.62735 0 8.08594C0 9.89836 0.64018 11.9472 1.95706 14.3494C3.60278 17.3516 5.97072 20.3129 7.57201 22.6999ZM8.13616 1.34766C11.8747 1.34766 14.9163 4.37045 14.9163 8.08594C14.9163 9.66737 14.3302 11.5053 13.1245 13.7047C11.7049 16.2944 9.67905 18.9214 8.13616 21.1299C6.5935 18.9217 4.56755 16.2946 3.14784 13.7047C1.94215 11.5053 1.35603 9.66737 1.35603 8.08594C1.35603 4.37045 4.39759 1.34766 8.13616 1.34766V1.34766Z" fill="black"/>
<path d="M8.1362 12.1289C10.3793 12.1289 12.2043 10.3152 12.2043 8.08594C12.2043 5.85664 10.3793 4.04297 8.1362 4.04297C5.89306 4.04297 4.06812 5.85664 4.06812 8.08594C4.06812 10.3152 5.89306 12.1289 8.1362 12.1289ZM8.1362 5.39062C9.63162 5.39062 10.8482 6.59974 10.8482 8.08594C10.8482 9.57213 9.63162 10.7812 8.1362 10.7812C6.64077 10.7812 5.42414 9.57213 5.42414 8.08594C5.42414 6.59974 6.64077 5.39062 8.1362 5.39062Z" fill="black"/>
</svg>
