<svg width="22" height="22" viewBox="0 0 22 22" fill="none" xmlns="http://www.w3.org/2000/svg">
<path d="M21.9028 4.7067C21.7727 4.49512 21.5347 4.37519 21.2869 4.39668L20.1899 4.49224L21.2385 2.37848C21.3634 2.12672 21.314 1.82341 21.1159 1.62416C20.9176 1.42492 20.6146 1.37413 20.3622 1.4977L17.587 2.85685C15.8724 1.95167 13.7303 2.22035 12.2563 3.56308C11.0261 4.68371 10.3795 6.40706 10.5001 8.12563C7.28474 7.80337 4.5631 5.96297 2.95375 2.98928C2.84697 2.79201 2.64678 2.66297 2.42304 2.64712C2.19887 2.63152 1.98291 2.73086 1.84945 2.9112C0.851289 4.25965 0.78125 6.10851 1.56375 7.62956C1.34805 7.57508 1.11851 7.50134 0.863964 7.41631C0.645898 7.34339 0.405488 7.3901 0.230476 7.53928C0.0554644 7.68847 -0.0286684 7.9184 0.00875738 8.14531C0.31839 10.0225 1.41306 11.4653 3.1423 12.3192C2.91714 12.3976 2.68739 12.4613 2.45377 12.51C2.22165 12.5584 2.0337 12.7282 1.96216 12.9542C1.89062 13.1803 1.94656 13.4273 2.10855 13.6005C3.35383 14.9315 5.15268 15.5867 6.43039 15.901C4.97762 17.0386 3.40939 17.229 1.13059 17.1508C0.8668 17.1428 0.623769 17.2914 0.512867 17.5305C0.402007 17.7697 0.445019 18.052 0.622179 18.2473C1.57213 19.2944 5.03309 20.4751 8.67134 20.5636C8.81525 20.5671 8.96203 20.569 9.1119 20.569C11.6664 20.5689 15.0425 20.0213 17.4658 17.598C19.3001 15.7638 20.4473 13.6523 20.8757 11.3223C21.2217 9.44039 21.003 7.93339 20.8979 7.20911C20.8902 7.15587 20.8819 7.09937 20.8752 7.04996L21.9014 5.39609C22.0323 5.18511 22.0328 4.91828 21.9028 4.7067ZM19.5994 7.39749C19.7941 8.73914 20.3864 12.8219 16.5381 16.6702C14.3011 18.9071 11.0429 19.3088 8.70323 19.2519C6.70685 19.2034 4.92116 18.8215 3.62694 18.3861C4.15241 18.3216 4.62068 18.2222 5.0627 18.0848C6.28125 17.7061 7.31069 17.0245 8.30233 15.9401C8.46763 15.7593 8.51842 15.5016 8.43416 15.2716C8.34989 15.0416 8.1445 14.8777 7.90156 14.8466C7.27598 14.7665 5.39627 14.45 3.91608 13.429C4.34263 13.2546 4.75401 13.0362 5.14683 12.7757C5.36232 12.6327 5.47378 12.3765 5.43133 12.1214C5.38892 11.8663 5.20067 11.6599 4.95051 11.5943C3.739 11.2767 2.27686 10.566 1.60264 8.97942C2.03319 9.05488 2.50133 9.07314 3.00063 8.9612C3.23206 8.90938 3.41751 8.73665 3.48557 8.50943C3.55368 8.28221 3.49387 8.03592 3.32912 7.86533C2.4902 6.99642 2.17649 5.74422 2.44564 4.67271C3.32711 5.96095 4.44382 7.04514 5.72326 7.84672C7.35998 8.87217 9.27028 9.43889 11.2477 9.48542C11.449 9.48968 11.642 9.40185 11.7701 9.24596C11.8982 9.09011 11.9474 8.88399 11.9036 8.68706C11.5634 7.15759 12.0486 5.5271 13.1399 4.5331C14.2717 3.50207 15.9444 3.34566 17.2076 4.153C17.4004 4.27628 17.6438 4.29007 17.8494 4.18935L19.2047 3.52557L18.4953 4.95561C18.3899 5.1681 18.4074 5.42092 18.5411 5.61682C18.6747 5.81271 18.9034 5.92147 19.14 5.90071L20.0957 5.81748L19.6554 6.52711C19.5077 6.76529 19.5383 6.97661 19.5994 7.39749Z" fill="black"/>
</svg>
