<svg width="22" height="20" viewBox="0 0 22 20" fill="none" xmlns="http://www.w3.org/2000/svg">
<path d="M21.9028 3.70673C21.7727 3.49515 21.5347 3.37522 21.2869 3.39671L20.1899 3.49227L21.2385 1.37851C21.3634 1.12675 21.314 0.823438 21.1159 0.624192C20.9176 0.424946 20.6146 0.374157 20.3622 0.497735L17.587 1.85688C15.8724 0.9517 13.7303 1.22038 12.2563 2.56311C11.0261 3.68374 10.3795 5.40709 10.5001 7.12567C7.28474 6.8034 4.5631 4.96301 2.95375 1.98931C2.84697 1.79204 2.64678 1.663 2.42304 1.64715C2.19887 1.63155 1.98291 1.7309 1.84945 1.91124C0.851289 3.25968 0.78125 5.10854 1.56375 6.62959C1.34805 6.57511 1.11851 6.50137 0.863964 6.41634C0.645898 6.34342 0.405488 6.39013 0.230476 6.53931C0.0554644 6.6885 -0.0286684 6.91843 0.00875738 7.14534C0.31839 9.02256 1.41306 10.4653 3.1423 11.3192C2.91714 11.3977 2.68739 11.4613 2.45377 11.51C2.22165 11.5584 2.0337 11.7282 1.96216 11.9543C1.89062 12.1803 1.94656 12.4274 2.10855 12.6005C3.35383 13.9316 5.15268 14.5867 6.43039 14.901C4.97762 16.0387 3.40939 16.2291 1.13059 16.1508C0.8668 16.1428 0.623769 16.2914 0.512867 16.5305C0.402007 16.7697 0.445019 17.052 0.622179 17.2473C1.57213 18.2944 5.03309 19.4751 8.67134 19.5636C8.81525 19.5671 8.96203 19.569 9.1119 19.569C11.6664 19.5689 15.0425 19.0213 17.4658 16.598C19.3001 14.7639 20.4473 12.6523 20.8757 10.3223C21.2217 8.44042 21.003 6.93342 20.8979 6.20914C20.8902 6.1559 20.8819 6.0994 20.8752 6.04999L21.9014 4.39612C22.0323 4.18514 22.0328 3.91831 21.9028 3.70673ZM19.5994 6.39752C19.7941 7.73917 20.3864 11.8219 16.5381 15.6702C14.3011 17.9071 11.0429 18.3088 8.70323 18.252C6.70685 18.2034 4.92116 17.8216 3.62694 17.3861C4.15241 17.3217 4.62068 17.2222 5.0627 17.0849C6.28125 16.7061 7.31069 16.0246 8.30233 14.9401C8.46763 14.7593 8.51842 14.5016 8.43416 14.2716C8.34989 14.0417 8.1445 13.8778 7.90156 13.8467C7.27598 13.7665 5.39627 13.4501 3.91608 12.429C4.34263 12.2546 4.75401 12.0363 5.14683 11.7757C5.36232 11.6327 5.47378 11.3765 5.43133 11.1214C5.38892 10.8664 5.20067 10.6599 4.95051 10.5943C3.739 10.2767 2.27686 9.56599 1.60264 7.97945C2.03319 8.05491 2.50133 8.07317 3.00063 7.96124C3.23206 7.90942 3.41751 7.73668 3.48557 7.50946C3.55368 7.28224 3.49387 7.03595 3.32912 6.86536C2.4902 5.99645 2.17649 4.74425 2.44564 3.67274C3.32711 4.96099 4.44382 6.04517 5.72326 6.84676C7.35998 7.8722 9.27028 8.43892 11.2477 8.48545C11.449 8.48971 11.642 8.40188 11.7701 8.24599C11.8982 8.09014 11.9474 7.88402 11.9036 7.68709C11.5634 6.15762 12.0486 4.52713 13.1399 3.53313C14.2717 2.5021 15.9444 2.34569 17.2076 3.15303C17.4004 3.27631 17.6438 3.2901 17.8494 3.18938L19.2047 2.5256L18.4953 3.95565C18.3899 4.16813 18.4074 4.42095 18.5411 4.61685C18.6747 4.81274 18.9034 4.9215 19.14 4.90074L20.0957 4.81751L19.6554 5.52714C19.5077 5.76532 19.5383 5.97664 19.5994 6.39752Z" fill="white"/>
</svg>
