<svg width="22" height="14" viewBox="0 0 22 14" fill="none" xmlns="http://www.w3.org/2000/svg">
<path d="M11.1329 13.75C14.3156 13.75 13.1807 11.7352 13.4264 11.1558C13.4227 10.7232 13.4191 10.307 13.4337 10.054C13.6354 10.1108 14.1112 10.3519 15.0938 11.3071C16.6109 12.8379 16.9987 13.75 18.2242 13.75H20.4802C21.1952 13.75 21.5673 13.4539 21.7534 13.2055C21.9331 12.9653 22.1091 12.5437 21.9166 11.8873C21.4133 10.307 18.4782 7.57808 18.2957 7.29025C18.3232 7.23708 18.3672 7.1665 18.3902 7.12983H18.3883C18.9677 6.36442 21.1787 3.05158 21.5041 1.72608C21.505 1.72425 21.5059 1.7215 21.5059 1.71875C21.6819 1.11375 21.5206 0.721417 21.3537 0.499583C21.1026 0.16775 20.7029 0 20.163 0H17.9071C17.1517 0 16.5788 0.380417 16.2892 1.07433C15.8042 2.30725 14.4421 4.84275 13.4209 5.74017C13.3897 4.46875 13.4108 3.498 13.4273 2.77658C13.4603 1.3695 13.5667 0 12.1064 0H8.56075C7.64592 0 6.7705 0.999167 7.71833 2.18533C8.547 3.22483 8.01625 3.80417 8.195 6.688C7.49833 5.94092 6.259 3.92333 5.38267 1.34475C5.137 0.647167 4.76483 0.0009166 3.71708 0.0009166H1.46117C0.546333 0.0009166 0 0.499583 0 1.33467C0 3.21017 4.15158 13.75 11.1329 13.75V13.75ZM3.71708 1.37592C3.916 1.37592 3.93617 1.37592 4.08375 1.79483C4.98117 4.43758 6.99417 8.34808 8.4645 8.34808C9.56908 8.34808 9.56908 7.216 9.56908 6.78975L9.56817 3.39625C9.50767 2.27333 9.09883 1.71417 8.83025 1.375L12.0459 1.37867C12.0477 1.39425 12.0276 5.13242 12.0551 6.03808C12.0551 7.32417 13.0762 8.06117 14.6703 6.44783C16.3524 4.54942 17.5157 1.71142 17.5624 1.59592C17.6312 1.43092 17.6907 1.375 17.9071 1.375H20.163H20.1722C20.1712 1.37775 20.1712 1.3805 20.1703 1.38325C19.9641 2.34575 17.9282 5.41292 17.2471 6.36533C17.2361 6.38 17.226 6.39558 17.2159 6.41117C16.9162 6.90067 16.6723 7.4415 17.2572 8.20233H17.2581C17.3112 8.2665 17.4497 8.41683 17.6513 8.62583C18.2783 9.273 20.4288 11.4858 20.6195 12.3658C20.493 12.386 20.3555 12.3713 18.2242 12.3759C17.7705 12.3759 17.4157 11.6976 16.0618 10.3318C14.8445 9.14742 14.0543 8.66342 13.3347 8.66342C11.9377 8.66342 12.0395 9.79733 12.0523 11.1687C12.0569 12.6555 12.0477 12.1853 12.0578 12.2788C11.9762 12.3108 11.7425 12.375 11.1329 12.375C5.31667 12.375 1.529 3.14325 1.38325 1.37867C1.43367 1.37408 2.12758 1.37683 3.71708 1.37592V1.37592Z" fill="black"/>
</svg>
